<svg width="219" height="211" viewBox="0 0 219 211" fill="none" xmlns="http://www.w3.org/2000/svg">
<path d="M166 55L176.137 61.9692C182.092 66.0633 181.118 75.1336 174.429 77.8698V77.8698C167.389 80.75 166.791 90.4889 173.426 94.2087L174.897 95.0334C181.578 98.7785 181.66 108.365 175.045 112.224L166 117.5" stroke="#CD0B0B" stroke-width="5"/>
<path d="M35 55L46.3202 62.8371C52.286 66.9672 50.8816 76.1538 43.9543 78.3129V78.3129C36.361 80.6797 35.6522 91.1491 42.8573 94.5177L44.4089 95.2431C51.3328 98.4803 51.6798 108.198 45.0045 111.921L35 117.5" stroke="#CD0B0B" stroke-width="5"/>
<path d="M117 3L109.293 7.81717C103.885 11.1971 104.234 19.1853 109.916 22.0801V22.0801C115.739 25.0462 115.924 33.2977 110.24 36.5218L103.227 40.5" stroke="#CC0000" stroke-width="5"/>
<path d="M144.5 167C144.5 176.955 143.575 185.13 138.982 190.899C134.494 196.534 125.946 200.5 109 200.5C92.0544 200.5 83.5055 196.534 79.0182 190.899C74.4253 185.13 73.5 176.955 73.5 167C73.5 148.624 89.2648 133.5 109 133.5C128.735 133.5 144.5 148.624 144.5 167Z" stroke="#CE1515" stroke-width="5"/>
<line x1="91.5" y1="151" x2="95.5" y2="148" stroke="#CE1515" stroke-width="5"/>
<path d="M101 144.57V144.57C109.493 142.324 118.548 144.231 125.413 149.712L126 150.18L128.228 152.453C132.569 156.88 135 162.896 135 169.095V169.095C135 170.414 134.886 171.743 134.658 173.042L134.443 174.272C133.233 181.184 128.576 187.001 122.095 189.694V189.694C120.045 190.546 117.871 191.059 115.656 191.215L110.435 191.583C106.522 191.858 102.595 191.306 98.9099 189.964L96.3119 189.017C92.5319 187.64 89.2764 185.117 87 181.8V181.8L85.867 179.951C83.3686 175.874 82.3811 171.048 83.0769 166.317V166.317C83.3575 164.409 83.9074 162.55 84.71 160.795L87 155.79" stroke="#CE1515" stroke-width="5"/>
<path d="M94 169.5L95.0992 169.971C103.022 173.367 108.386 180.902 109 189.5V189.5" stroke="#CE1515" stroke-width="5"/>
<path d="M124 169L122.901 169.471C114.978 172.867 109.614 180.402 109 189V189" stroke="#CE1515" stroke-width="5"/>
<ellipse cx="49.5" cy="167.5" rx="36.5" ry="37.5" fill="white"/>
<ellipse cx="170.5" cy="167.5" rx="36.5" ry="37.5" fill="white"/>
<path d="M207.5 166C207.5 175.955 206.575 184.13 201.982 189.899C197.494 195.534 188.946 199.5 172 199.5C155.054 199.5 146.506 195.534 142.018 189.899C137.425 184.13 136.5 175.955 136.5 166C136.5 147.624 152.265 132.5 172 132.5C191.735 132.5 207.5 147.624 207.5 166Z" stroke="#CE1515" stroke-width="5"/>
<line x1="154.5" y1="150" x2="158.5" y2="147" stroke="#CE1515" stroke-width="5"/>
<path d="M164 143.57V143.57C172.493 141.324 181.548 143.231 188.413 148.712L189 149.18L191.228 151.453C195.569 155.88 198 161.896 198 168.095V168.095C198 169.414 197.886 170.743 197.658 172.042L197.443 173.272C196.233 180.184 191.576 186.001 185.095 188.694V188.694C183.045 189.546 180.871 190.059 178.656 190.215L173.435 190.583C169.522 190.858 165.595 190.306 161.91 188.964L159.312 188.017C155.532 186.64 152.276 184.117 150 180.8V180.8L148.867 178.951C146.369 174.874 145.381 170.048 146.077 165.317V165.317C146.358 163.409 146.907 161.55 147.71 159.795L150 154.79" stroke="#CE1515" stroke-width="5"/>
<path d="M157 168.5L158.099 168.971C166.022 172.367 171.386 179.902 172 188.5V188.5" stroke="#CE1515" stroke-width="5"/>
<path d="M187 168L185.901 168.471C177.978 171.867 172.614 179.402 172 188V188" stroke="#CE1515" stroke-width="5"/>
<path d="M84.5 166C84.5 175.955 83.5747 184.13 78.9818 189.899C74.4945 195.534 65.9456 199.5 49 199.5C32.0544 199.5 23.5055 195.534 19.0182 189.899C14.4253 184.13 13.5 175.955 13.5 166C13.5 147.624 29.2648 132.5 49 132.5C68.7352 132.5 84.5 147.624 84.5 166Z" stroke="#CE1515" stroke-width="5"/>
<line x1="31.5" y1="150" x2="35.5" y2="147" stroke="#CE1515" stroke-width="5"/>
<path d="M41 143.57V143.57C49.4929 141.324 58.5477 143.231 65.4133 148.712L66 149.18L68.2285 151.453C72.5688 155.88 75 161.896 75 168.095V168.095C75 169.414 74.8857 170.743 74.6583 172.042L74.443 173.272C73.2328 180.184 68.5761 186.001 62.0955 188.694V188.694C60.0454 189.546 57.8707 190.059 55.6562 190.215L50.4348 190.583C46.5221 190.858 42.5953 190.306 38.9099 188.964L36.3119 188.017C32.5319 186.64 29.2764 184.117 27 180.8V180.8L25.867 178.951C23.3686 174.874 22.3811 170.048 23.0769 165.317V165.317C23.3575 163.409 23.9074 161.55 24.71 159.795L27 154.79" stroke="#CE1515" stroke-width="5"/>
<path d="M34 168.5L35.0992 168.971C43.0221 172.367 48.3859 179.902 49 188.5V188.5" stroke="#CE1515" stroke-width="5"/>
<path d="M64 168L62.9008 168.471C54.9779 171.867 49.6141 179.402 49 188V188" stroke="#CE1515" stroke-width="5"/>
<path d="M144.5 91C144.5 100.955 143.575 109.13 138.982 114.899C134.494 120.534 125.946 124.5 109 124.5C92.0544 124.5 83.5055 120.534 79.0182 114.899C74.4253 109.13 73.5 100.955 73.5 91C73.5 72.6241 89.2648 57.5 109 57.5C128.735 57.5 144.5 72.6241 144.5 91Z" stroke="#CE1515" stroke-width="5"/>
<line x1="91.5" y1="75" x2="95.5" y2="72" stroke="#CE1515" stroke-width="5"/>
<path d="M101 68.57V68.57C109.493 66.3241 118.548 68.2311 125.413 73.7117L126 74.18L128.228 76.4531C132.569 80.8802 135 86.8956 135 93.0954V93.0954C135 94.4141 134.886 95.7431 134.658 97.042L134.443 98.2717C133.233 105.184 128.576 111.001 122.095 113.694V113.694C120.045 114.546 117.871 115.059 115.656 115.215L110.435 115.583C106.522 115.858 102.595 115.306 98.9099 113.964L96.3119 113.017C92.5319 111.64 89.2764 109.117 87 105.8V105.8L85.867 103.951C83.3686 99.8735 82.3811 95.0484 83.0769 90.3174V90.3174C83.3575 88.4088 83.9074 86.5496 84.71 84.7953L87 79.79" stroke="#CE1515" stroke-width="5"/>
<path d="M94 93.5L95.0992 93.9711C103.022 97.3666 108.386 104.902 109 113.5V113.5" stroke="#CE1515" stroke-width="5"/>
<path d="M124 93L122.901 93.4711C114.978 96.8666 109.614 104.402 109 113V113" stroke="#CE1515" stroke-width="5"/>
<path d="M211.67 180.5H6.53206C4.58136 180.5 3 182.081 3 184.032C3 184.666 3.17044 185.288 3.49346 185.833L7.30123 192.258C9.73376 196.363 13.0871 199.847 17.0966 202.433L17.8887 202.944C23.5102 206.571 30.0581 208.5 36.7479 208.5H182.914C189.19 208.5 195.353 206.822 200.763 203.64L204.591 201.387C207.799 199.501 210.409 196.748 212.121 193.444L215.536 186.859C216.145 185.684 216.187 184.296 215.649 183.086C214.95 181.513 213.391 180.5 211.67 180.5Z" fill="#FDFDFD" stroke="#CE1515" stroke-width="5"/>
<line x1="10" y1="195.5" x2="93" y2="195.5" stroke="#CE1414" stroke-width="5"/>
<line x1="130" y1="195.5" x2="210" y2="195.5" stroke="#CE1414" stroke-width="5"/>
<line x1="102" y1="195.5" x2="121" y2="195.5" stroke="#CE1414" stroke-width="5"/>
</svg>

