<svg width="357" height="102" viewBox="0 0 357 102" fill="none" xmlns="http://www.w3.org/2000/svg">
<path d="M8.09375 36.7988H29.7285V64H24.2363V41.3633H13.5859V64H8.09375V36.7988ZM35.332 64V36.7988H55.501V41.4004H40.8242V47.4307H54.4805V52.0137H40.8242V59.417H56.0205V64H35.332ZM62.626 36.7988H81.6816V64H76.1895V41.4004H68.0068V53.0156C68.0068 56.3431 67.8955 58.6686 67.6729 59.9922C67.4502 61.3034 66.9059 62.3301 66.04 63.0723C65.1865 63.8021 63.8444 64.167 62.0137 64.167C61.3704 64.167 60.2015 64.1051 58.5068 63.9814V59.7324L59.7314 59.751C60.8818 59.751 61.6549 59.5964 62.0508 59.2871C62.4466 58.9779 62.6445 58.2171 62.6445 57.0049L62.626 52.3291V36.7988ZM87.4707 36.7988H92.9629V47.6719H100.311C103.774 47.6719 106.279 48.4821 107.825 50.1025C109.384 51.723 110.163 53.665 110.163 55.9287C110.163 57.7842 109.693 59.3613 108.753 60.6602C107.813 61.959 106.737 62.8434 105.524 63.3135C104.325 63.7712 102.587 64 100.311 64H87.4707V36.7988ZM92.9629 59.4355H98.3066C100.038 59.4355 101.238 59.3551 101.906 59.1943C102.574 59.0212 103.168 58.6377 103.688 58.0439C104.219 57.4502 104.485 56.7204 104.485 55.8545C104.485 54.6051 104.034 53.6898 103.131 53.1084C102.24 52.527 100.713 52.2363 98.5479 52.2363H92.9629V59.4355ZM113.633 64V36.7988H121.853L126.788 55.3535L131.668 36.7988H139.906V64H134.804V42.5879L129.404 64H124.116L118.735 42.5879V64H113.633ZM145.361 64V36.7988H165.53V41.4004H150.854V47.4307H164.51V52.0137H150.854V59.417H166.05V64H145.361ZM170.726 64V36.7988H176.218V47.5049H186.979V36.7988H192.472V64H186.979V52.1064H176.218V64H170.726ZM198.187 64V36.7988H203.679V47.5049H214.44V36.7988H219.933V64H214.44V52.1064H203.679V64H198.187ZM250.158 64H244.184L241.809 57.8213H230.936L228.69 64H222.864L233.459 36.7988H239.267L250.158 64ZM240.046 53.2383L236.298 43.1445L232.624 53.2383H240.046ZM269.362 64V52.6445H268.249C266.517 52.6445 265.293 52.9043 264.575 53.4238C263.87 53.9434 262.658 55.4958 260.938 58.0811L256.968 64H250.399L253.721 58.6934C255.032 56.5905 256.077 55.1185 256.856 54.2773C257.636 53.4238 258.613 52.6631 259.788 51.9951C257.252 51.5993 255.422 50.721 254.296 49.3604C253.17 47.9873 252.607 46.3483 252.607 44.4434C252.607 42.7858 253.022 41.32 253.851 40.0459C254.692 38.7594 255.793 37.8997 257.153 37.4668C258.526 37.0215 260.574 36.7988 263.295 36.7988H274.854V64H269.362ZM269.362 41.4004H265.076C262.899 41.4004 261.464 41.4499 260.771 41.5488C260.091 41.6478 259.504 41.9818 259.009 42.5508C258.514 43.1198 258.267 43.862 258.267 44.7773C258.267 45.7298 258.502 46.4906 258.972 47.0596C259.454 47.6162 260.06 47.9626 260.79 48.0986C261.532 48.2347 263.035 48.3027 265.299 48.3027H269.362V41.4004ZM291.238 36.7988H296.619L307.325 54.7598V36.7988H312.521V64H306.917L296.378 46.5215V64H291.238V36.7988ZM314.265 49.2861C314.265 46.973 314.951 45.1361 316.324 43.7754C317.71 42.4023 319.466 41.7158 321.594 41.7158C323.746 41.7158 325.515 42.4518 326.9 43.9238C328.286 45.3835 328.979 47.2142 328.979 49.416C328.979 50.8014 328.7 52.0384 328.144 53.127C327.587 54.2031 326.789 55.1061 325.75 55.8359C324.723 56.5534 323.387 56.9121 321.742 56.9121C319.417 56.9121 317.586 56.1761 316.25 54.7041C314.926 53.2321 314.265 51.4261 314.265 49.2861ZM319.312 49.7686C319.312 50.9437 319.503 51.8281 319.887 52.4219C320.27 53.0033 320.845 53.2939 321.612 53.2939C322.416 53.2939 323.016 52.929 323.412 52.1992C323.808 51.4694 324.006 50.3747 324.006 48.915C324.006 47.7028 323.82 46.7936 323.449 46.1875C323.09 45.5814 322.546 45.2783 321.816 45.2783C320.988 45.2783 320.363 45.6556 319.942 46.4102C319.522 47.1523 319.312 48.2718 319.312 49.7686ZM314.933 58.6934H328.199V62.7939H314.933V58.6934ZM345.548 64H340.334V44.3506C338.429 46.1318 336.184 47.4492 333.599 48.3027V43.5713C334.959 43.126 336.438 42.2848 338.033 41.0479C339.629 39.7985 340.724 38.3451 341.317 36.6875H345.548V64Z" fill="white"/>
<line x1="5" y1="17.5" x2="352" y2="17.5" stroke="white" stroke-width="3"/>
<line x1="5" y1="10.5" x2="352" y2="10.5" stroke="white" stroke-width="3"/>
<line x1="5" y1="89.5" x2="352" y2="89.5" stroke="white" stroke-width="3"/>
<line x1="5" y1="82.5" x2="352" y2="82.5" stroke="white" stroke-width="3"/>
</svg>
